# xmcd
#
# Track frame offsets: 
#        150
#        19721
#        44309
#        62065
#        86364
#        107208
#        127130
#        143867
#        168599
#        193307
#        213632
#
# Disc length: 3357 seconds
#
# Revision: 1
# Processed by: cddbd v1.5.2PL0 Copyright (c) Steve Scherf et al.
# Submitted via: ExactAudioCopyFreeDBPlugin 1.0
#
DISCID=a50d1b0b
DTITLE=群星 - DTS51九寨2
DYEAR=2008
DGENRE=DTS
TTITLE0=你的眼神
TTITLE1=欢颜
TTITLE2=好人一生平安
TTITLE3=渴望
TTITLE4=女人花
TTITLE5=请跟我来
TTITLE6=读你
TTITLE7=绿叶对根的情谊
TTITLE8=橄榄树
TTITLE9=在水一方
TTITLE10=何日君再来
EXTD=
EXTT0=
EXTT1=
EXTT2=
EXTT3=
EXTT4=
EXTT5=
EXTT6=
EXTT7=
EXTT8=
EXTT9=
EXTT10=
PLAYORDER=
